<svg width="34" height="34" viewBox="0 0 34 34" fill="none" xmlns="http://www.w3.org/2000/svg">
<path d="M2 8L17 0L32 8V26L17 34L2 26V8Z" fill="#383789"/>
<path d="M17.9784 26.4667C16.0113 26.4667 14.2678 26.0578 12.7478 25.24C11.2456 24.4044 10.0744 23.2578 9.23388 21.8C8.41129 20.3244 8 18.6356 8 16.7333C8 14.8311 8.42024 13.1422 9.26071 11.6667C10.1012 10.1911 11.2725 9.04444 12.7746 8.22667C14.2946 7.40889 16.0113 7 17.9247 7C20.7144 7 23.0659 7.96889 24.9793 9.90667L22.592 12.1733C21.3581 10.9467 19.8381 10.3333 18.032 10.3333C16.7981 10.3333 15.7073 10.6 14.7595 11.1333C13.8118 11.6667 13.0696 12.4222 12.5332 13.4C12.0146 14.36 11.7553 15.4711 11.7553 16.7333C11.7553 17.9956 12.0146 19.1156 12.5332 20.0933C13.0696 21.0533 13.8118 21.8 14.7595 22.3333C15.7073 22.8667 16.7981 23.1333 18.032 23.1333C18.9619 23.1333 19.8471 22.9644 20.6875 22.6267C21.528 22.2889 22.2701 21.8089 22.9139 21.1867L25.1671 23.64C23.2536 25.5244 20.8574 26.4667 17.9784 26.4667Z" fill="white"/>
</svg>
